HIERARCHY
ROOT Hips
{
  OFFSET 13.6774 106.653 -34.4427
  CHANNELS 6 Xposition Yposition Zposition Zrotation Xrotation Yrotation
  JOINT ToSpine
  {
    OFFSET -2.69724 7.43032 -0.144315
    CHANNELS 3 Zrotation Xrotation Yrotation
    JOINT Spine
    {
      OFFSET -0.0310711 10.7595 1.96963
      CHANNELS 3 Zrotation Xrotation Yrotation
      JOINT Spine1
      {
        OFFSET 19.9056 3.91189 0.764692
        CHANNELS 3 Zrotation Xrotation Yrotation
        JOINT Neck
        {
          OFFSET 25.9749 7.03908 -0.130764
          CHANNELS 3 Zrotation Xrotation Yrotation
          JOINT Head
          {
            OFFSET 9.52751 0.295786 -0.907742
            CHANNELS 3 Zrotation Xrotation Yrotation
            End Site
            {
              OFFSET 16.4037 0.713936 2.7358
            }
          }
        }
        JOINT LeftShoulder
        {
          OFFSET 17.7449 4.33886 11.7777
          CHANNELS 3 Zrotation Xrotation Yrotation
          JOINT LeftArm
          {
            OFFSET 0.911315 1.27913 9.80584
            CHANNELS 3 Zrotation Xrotation Yrotation
            JOINT LeftForeArm
            {
              OFFSET 28.6126 1.18197 -3.53199
              CHANNELS 3 Zrotation Xrotation Yrotation
              JOINT LeftHand
              {
                OFFSET 27.5088 0.0218783 0.327423
                CHANNELS 3 Zrotation Xrotation Yrotation
                End Site
                {
                  OFFSET 18.6038 -0.000155887 0.382096
                }
              }
            }
          }
        }
        JOINT RightShoulder
        {
          OFFSET 17.1009 2.89543 -12.2328
          CHANNELS 3 Zrotation Xrotation Yrotation
          JOINT RightArm
          {
            OFFSET 1.4228 0.178766 -10.211
            CHANNELS 3 Zrotation Xrotation Yrotation
            JOINT RightForeArm
            {
              OFFSET 28.733 1.87905 2.64907
              CHANNELS 3 Zrotation Xrotation Yrotation
              JOINT RightHand
              {
                OFFSET 27.4588 0.290562 -0.101845
                CHANNELS 3 Zrotation Xrotation Yrotation
                End Site
                {
                  OFFSET 17.8396 -0.255518 -0.000602873
                }
              }
            }
          }
        }
      }
    }
  }
  JOINT LeftUpLeg
  {
    OFFSET -5.61296 -2.22332 -10.2353
    CHANNELS 3 Zrotation Xrotation Yrotation
    JOINT LeftLeg
    {
      OFFSET 2.56703 -44.7417 -7.93097
      CHANNELS 3 Zrotation Xrotation Yrotation
      JOINT LeftFoot
      {
        OFFSET 3.16933 -46.5642 -3.96578
        CHANNELS 3 Zrotation Xrotation Yrotation
        JOINT LeftToeBase
        {
          OFFSET 0.346054 -6.02161 12.8035
          CHANNELS 3 Zrotation Xrotation Yrotation
          End Site
          {
            OFFSET 0.134235 -1.35082 5.13018
          }
        }
      }
    }
  }
  JOINT RightUpLeg
  {
    OFFSET -5.7928 -1.72406 10.6446
    CHANNELS 3 Zrotation Xrotation Yrotation
    JOINT RightLeg
    {
      OFFSET -2.57161 -44.7178 -7.85259
      CHANNELS 3 Zrotation Xrotation Yrotation
      JOINT RightFoot
      {
        OFFSET -3.10148 -46.5936 -4.03391
        CHANNELS 3 Zrotation Xrotation Yrotation
        JOINT RightToeBase
        {
          OFFSET -0.0828122 -6.13587 12.8035
          CHANNELS 3 Zrotation Xrotation Yrotation
          End Site
          {
            OFFSET -0.131328 -1.35082 5.13018
          }
        }
      }
    }
  }
}
MOTION
Frames: 10
Frame Time: 0.03333333333333333
0.0000 93.1000 0.0000 71.0573 -26.4783 -2.0111 -71.0095 -0.0892 87.9918 113.9420 70.7469 -37.3343 5.6014 21.9136 2.5614 -113.1335 28.2241 155.8913 146.9314 65.8197 -108.7930 1.1092 -10.3847 -12.1951 -67.6334 34.3304 -147.6720 29.9563 -5.1899 -97.9622 0.2688 -0.1548 0.0739 -2.9673 7.3165 44.7052 -128.1087 2.2905 75.7265 4.7937 -4.5997 52.6558 0.2996 0.1256 -0.0465 -21.6699 23.3587 86.7174 -10.0859 64.7423 -10.5090 -0.8564 -11.8994 -1.3464 3.0612 -9.8353 10.5522 -27.0360 -15.8640 80.5739 2.8866 51.7864 4.2052 -3.4795 2.5447 -0.1475 1.0866 -15.2734 -3.2570 
0.0000 93.1000 0.0000 70.1724 -25.8289 -1.8351 -71.0100 -0.1609 87.9925 113.8757 70.9709 -36.5006 5.2773 21.8691 2.7015 -112.4498 28.0782 154.8152 147.9376 66.2408 -109.0478 1.3969 -10.9911 -12.4898 -66.5451 34.8185 -146.3571 28.9064 -4.9529 -98.1449 0.2414 -0.2596 0.1393 -2.7549 7.3050 44.2861 -127.9758 1.7558 74.6527 5.3542 -5.2523 51.8885 0.2686 0.2820 0.2257 -21.7939 23.1173 85.7613 -10.1127 65.1862 -11.4507 -1.2157 -11.5726 -1.4213 3.1614 -9.9672 10.9407 -28.6037 -16.4647 79.0753 2.6784 51.2283 4.9975 -4.2267 1.7652 -0.1847 1.8987 -16.4975 -3.4728 
0.0000 93.1000 0.0000 69.0954 -25.7299 -1.0774 -71.0077 0.1918 87.9921 113.9918 71.1674 -35.3729 4.9516 22.0045 2.6664 -112.4587 28.3074 155.3030 147.2202 66.6059 -109.0776 1.4032 -10.9140 -12.7325 -65.7207 35.1764 -145.8772 28.2905 -4.9424 -98.5140 0.1165 0.0287 -0.0066 -2.7397 6.9640 44.0900 -127.9970 0.7459 74.2861 5.3646 -5.1020 51.9267 0.1547 -0.0119 -0.0085 -21.9857 23.2143 85.1012 -10.3073 65.2179 -11.2444 -1.0933 -13.0721 -1.7212 3.0090 -9.7883 11.0835 -30.0035 -17.2817 77.1675 3.3167 50.9474 3.1873 -4.1605 1.0225 0.0098 1.5035 -16.2639 -2.4944 
0.0000 93.1000 0.0000 68.9454 -26.2041 -0.5904 -71.0082 0.4513 87.9904 113.8432 71.7006 -35.5780 4.7749 22.0881 2.8272 -113.0597 28.4808 155.3303 146.1236 66.8891 -108.6783 1.1594 -11.0033 -13.1522 -66.3035 35.4225 -145.9238 28.0132 -4.9966 -99.4142 0.0159 0.3111 -0.0885 -2.8524 6.6257 43.6791 -127.9531 0.1427 74.7974 5.6424 -5.3084 51.7641 -0.0886 -0.2890 -0.2400 -22.8080 23.0027 84.7677 -10.2657 65.7286 -11.3385 -1.1410 -14.4284 -1.7651 3.2328 -9.8230 11.9756 -30.3885 -17.4110 76.2537 2.6622 50.9759 2.2476 -4.9540 0.8496 0.0422 1.1494 -14.6857 -1.0457 
0.0000 93.1000 0.0000 68.0926 -26.1482 -1.9124 -71.0123 -0.1511 87.9901 113.0080 71.9605 -34.4699 4.2195 22.4974 2.1975 -113.3036 28.5409 155.3180 146.0736 67.0259 -108.2861 1.1480 -11.0702 -12.8937 -66.3523 35.3287 -145.9727 27.0969 -4.8104 -99.5431 -0.2135 -0.2449 0.1508 -2.9555 6.5699 43.1195 -128.2509 -0.0872 75.1082 5.3816 -5.8009 51.9960 0.3530 0.2576 0.3036 -23.0923 22.9122 85.4231 -10.3128 65.6932 -10.0525 -0.5530 -14.8150 -1.6424 3.3635 -10.3199 11.1422 -30.0499 -17.5086 76.1024 2.8323 51.6451 1.8133 -5.0386 -0.4174 -0.2997 0.8962 -13.5213 1.2858 
0.0000 93.1000 0.0000 68.3022 -25.8405 -1.8860 -71.0103 0.0441 87.9912 113.1684 71.8353 -34.3846 3.9468 22.5976 2.0521 -113.3320 28.6601 154.9807 146.8822 66.9475 -109.7434 1.2079 -11.2727 -13.1094 -67.0264 35.1463 -145.9129 27.4247 -4.8264 -99.3891 -0.4313 -0.0926 0.0613 -2.8624 6.9344 42.8128 -127.7870 -1.0685 75.0626 5.0371 -6.2395 52.0813 0.2092 0.1652 0.3247 -23.6029 22.8762 85.8833 -10.0439 65.1941 -11.0412 -0.2006 -15.3543 -1.9113 3.5875 -11.4505 11.9509 -30.2723 -17.4465 76.6440 3.2588 51.1606 1.8315 -4.7747 -1.1689 -0.1536 0.2315 -13.8483 2.1851 
0.0000 93.1000 0.0000 68.0845 -26.0916 -2.7139 -71.0108 -0.0349 87.9928 112.8594 71.7937 -33.4705 4.2259 22.3952 2.2497 -113.5381 28.4852 154.9697 147.6826 66.9114 -110.3657 1.4391 -10.8580 -13.3546 -67.4023 34.8749 -145.8914 26.9993 -4.8251 -99.3304 -0.4150 -0.1432 0.1273 -2.6754 7.0164 42.6436 -127.2169 -0.8138 75.7888 5.7127 -6.2164 51.9304 0.2743 0.2229 0.4466 -23.6762 22.8387 86.1597 -10.1041 65.1028 -11.8513 -0.3214 -15.1697 -2.0024 3.9147 -13.1030 12.4220 -29.8819 -17.6254 76.7885 2.6793 51.1353 2.0600 -4.4991 -1.6391 -0.1028 0.7573 -14.9363 1.8267 
0.0000 93.1000 0.0000 68.1335 -26.4588 -3.1344 -71.0097 -0.2670 87.9937 112.8669 71.3112 -32.8520 4.1398 22.2418 2.1474 -114.3049 29.0626 155.3985 146.7754 66.7944 -109.9740 1.4555 -10.8482 -13.1870 -67.5789 35.1152 -146.7877 26.4308 -4.8774 -99.4520 -0.3466 -0.3356 0.2304 -2.6654 7.1533 41.6950 -127.3174 -1.7120 75.6873 6.7566 -6.2042 52.5639 0.3321 0.3586 0.5658 -24.0233 23.0474 86.7243 -9.8838 65.3452 -11.7739 -0.7266 -15.2887 -1.9189 4.1920 -13.4730 12.0534 -29.6192 -17.5799 76.6823 2.5488 50.9805 2.1457 -3.3969 -2.2018 -0.1873 1.2284 -15.4697 1.9190 
0.0000 93.1000 0.0000 68.4859 -26.9458 -3.0570 -71.0086 -0.0051 87.9936 110.9657 71.5920 -32.2908 3.9732 22.3725 1.9961 -114.2567 28.8296 156.4628 144.9285 66.5214 -107.9271 1.1585 -10.8932 -12.7189 -68.1282 34.9221 -147.0419 27.0105 -5.2587 -99.4225 -0.3294 -0.0621 0.1692 -2.8040 6.9754 41.2897 -127.7542 -1.9627 75.8846 6.1655 -5.9396 52.8197 0.2511 0.0743 0.2283 -24.6409 23.4196 87.1573 -9.6476 65.3220 -11.9187 -0.8834 -16.2869 -1.8515 4.3706 -13.1705 12.1679 -29.8537 -17.8813 77.1311 2.8357 51.1855 3.0142 -3.3467 -2.2723 -0.2607 1.3090 -16.1633 0.6623 
0.0000 93.1000 0.0000 66.9652 -26.9920 -4.0052 -71.0078 0.1226 87.9943 109.8567 71.7895 -30.6008 4.3093 22.1428 1.4962 -114.3399 28.7683 156.9157 144.9606 66.3405 -108.4913 1.2972 -10.5740 -12.5717 -68.1773 35.0967 -146.8096 27.5928 -5.2655 -98.9330 -0.1740 0.0485 0.0152 -2.8252 6.9783 41.3279 -128.3216 -1.1771 76.0491 6.2532 -5.7594 53.0880 0.0840 -0.0575 0.0917 -24.8230 23.0137 87.8222 -9.6623 65.0472 -12.0148 -1.7633 -17.1472 -1.8365 4.2584 -12.3066 11.8134 -29.8509 -17.7179 78.9097 2.9664 50.7629 3.1745 -2.8006 -2.0863 -0.1506 1.2442 -15.8721 -0.9379 
